<?xml version="1.0" encoding="UTF-8"?>
<svg width="20" height="20" viewBox="0 0 20 20" fill="none" xmlns="http://www.w3.org/2000/svg">
  <path d="M14.167 0H5.833C2.612 0 0 2.612 0 5.833v8.334C0 17.388 2.612 20 5.833 20h8.334C17.388 20 20 17.388 20 14.167V5.833C20 2.612 17.388 0 14.167 0zm3.333 14.167c0 1.841-1.492 3.333-3.333 3.333H5.833c-1.841 0-3.333-1.492-3.333-3.333V5.833c0-1.841 1.492-3.333 3.333-3.333h8.334c1.841 0 3.333 1.492 3.333 3.333v8.334z" fill="#E4405F"/>
  <path d="M10 4.167c-3.221 0-5.833 2.612-5.833 5.833 0 3.221 2.612 5.833 5.833 5.833 3.221 0 5.833-2.612 5.833-5.833 0-3.221-2.612-5.833-5.833-5.833zm0 9.166c-1.841 0-3.333-1.492-3.333-3.333 0-1.841 1.492-3.333 3.333-3.333 1.841 0 3.333 1.492 3.333 3.333 0 1.841-1.492 3.333-3.333 3.333z" fill="#E4405F"/>
  <circle cx="15.417" cy="4.583" r="1.25" fill="#E4405F"/>
</svg> 